<?xml version="1.0" encoding="utf-8"?>
<!-- Generator: Adobe Illustrator 24.2.3, SVG Export Plug-In . SVG Version: 6.00 Build 0)  -->
<svg version="1.1" id="Layer_1" xmlns="http://www.w3.org/2000/svg" xmlns:xlink="http://www.w3.org/1999/xlink" x="0px" y="0px"
	 viewBox="0 0 595.3 841.9" style="enable-background:new 0 0 595.3 841.9;" xml:space="preserve">
<style type="text/css">
	.st0{fill:#EF4885;stroke:#F2EA32;stroke-miterlimit:10;}
	.st1{fill:#EDE82E;}
</style>
<path class="st0" d="M294,259.5c-33.8-36.6-81.7-49.2-118-33c-49.6,22.2-52.8,87.1-53,92c-2.7,77.6,78.9,172.9,177,165
	c100.2-8.1,164.3-119.5,148-193c-1.2-5.4-14.6-61.8-61-73C354.8,209.7,317.9,226.3,294,259.5z"/>
<path class="st1" d="M290.9,313c-19.2-20.9-46.5-28.1-67.2-18.8c-28.3,12.6-30.1,49.6-30.2,52.4c-1.5,44.2,44.9,98.5,100.8,94
	c57.1-4.6,93.6-68.1,84.3-110c-0.7-3.1-8.3-35.2-34.8-41.6C325.5,284.6,304.5,294.1,290.9,313z"/>
</svg>
